<svg xmlns="http://www.w3.org/2000/svg" width="228.636" height="40.733" viewBox="0 0 228.636 40.733">
  <g id="Group_13542" data-name="Group 13542" transform="translate(2181.083 -1620.069)" opacity="0.655">
    <g id="Group_12754" data-name="Group 12754" transform="translate(-2181.083 1620.069)">
      <path id="Path_16741" data-name="Path 16741" d="M-2112.888,1691.841l-2.824,1.589c-.564.318-1.123.643-1.693.948a.357.357,0,0,0-.219.369q.008,6.013,0,12.027c0,.524,0,1.048,0,1.572a.291.291,0,0,0,.159.3q3.8,2.283,7.586,4.579a.264.264,0,0,0,.314,0c1.47-.855,2.944-1.7,4.415-2.557q4.052-2.356,8.1-4.719c.2-.114.2-.113.2.124q0,2.652,0,5.3a.3.3,0,0,1-.167.293q-3.7,2.2-7.4,4.409-2.533,1.509-5.064,3.022a.364.364,0,0,1-.431,0q-4.911-2.877-9.829-5.745c-.9-.524-1.791-1.05-2.691-1.568a.3.3,0,0,1-.177-.307q.006-9.736,0-19.47a.309.309,0,0,1,.18-.3q2.249-1.339,4.49-2.691a.324.324,0,0,1,.391,0c1.488.9,2.982,1.786,4.474,2.678A.394.394,0,0,1-2112.888,1691.841Z" transform="translate(2131.531 -1678.437)" fill="#d5dff5"/>
      <path id="Path_16742" data-name="Path 16742" d="M-2055.686,1623.058c.191-.12.373-.237.558-.35q2.094-1.293,4.187-2.586a.237.237,0,0,1,.292,0c.638.4,1.281.792,1.934,1.159,1.508.847,2.985,1.746,4.483,2.609.745.43,1.47.894,2.22,1.315,1.039.583,2.055,1.205,3.092,1.793a.323.323,0,0,1,.186.326q-.007,5.065,0,10.13a.322.322,0,0,1-.191.321c-.932.539-1.858,1.087-2.787,1.632l-6.25,3.671q-6.138,3.607-12.276,7.217a.3.3,0,0,1-.352,0q-1.825-1.063-3.659-2.112a.306.306,0,0,1-.175-.31q.007-2.718,0-5.436c0-.261,0-.262.239-.127.822.469,1.638.95,2.468,1.4q.581.318,1.16.639a.246.246,0,0,0,.28,0q4.326-2.52,8.655-5.034c.993-.577,1.991-1.146,2.985-1.721q2.415-1.4,4.831-2.8a.306.306,0,0,0,.18-.305q-.011-2.052,0-4.1a.277.277,0,0,0-.151-.28q-2.643-1.551-5.28-3.112-3.273-1.934-6.543-3.871C-2055.624,1623.107-2055.646,1623.088-2055.686,1623.058Z" transform="translate(2082.225 -1620.069)" fill="#d5dff5"/>
      <path id="Path_16743" data-name="Path 16743" d="M-2146.435,1633.228l-2.35,1.436c-.77.47-1.542.936-2.306,1.415a.34.34,0,0,1-.41,0q-4.374-2.564-8.753-5.119-3.45-2.017-6.9-4.037a.345.345,0,0,0-.411,0c-1.337.812-2.679,1.614-4.02,2.419q-2.094,1.257-4.191,2.51a.323.323,0,0,0-.186.323q.008,4.5,0,8.994v.232c-.092.016-.14-.037-.194-.069q-2.378-1.378-4.757-2.755a.3.3,0,0,1-.176-.307q.007-4.508,0-9.016a.321.321,0,0,1,.187-.323q4.158-2.418,8.31-4.847,2.521-1.471,5.042-2.945a.317.317,0,0,1,.374,0c.675.4,1.356.794,2.034,1.189l4.033,2.347q2.25,1.31,4.5,2.62l10.01,5.823C-2146.552,1633.15-2146.51,1633.179-2146.435,1633.228Z" transform="translate(2181.083 -1620.928)" fill="#d5dff5"/>
      <path id="Path_16744" data-name="Path 16744" d="M-1705.658,1727.768l3.745,5.49a.221.221,0,0,1-.178.035c-.939,0-1.879,0-2.818,0a.277.277,0,0,1-.268-.132q-2.408-3.544-4.825-7.081c-.016-.023-.029-.049-.045-.077.073-.064.156-.031.23-.033.815-.013,1.632.035,2.445-.026a2.556,2.556,0,0,0,2.051-1.029,2.9,2.9,0,0,0,.483-1.736,2.571,2.571,0,0,0-.746-1.959,2.846,2.846,0,0,0-1.574-.685,5.184,5.184,0,0,0-.827-.054c-1.187,0-2.374.005-3.561,0-.181,0-.226.044-.226.226q.008,6.166.009,12.332c0,.212-.052.264-.262.26-.793-.013-1.588-.009-2.381,0-.161,0-.224-.026-.223-.209q.008-7.334,0-14.668c0-.131,0-.21.177-.209,2.468.009,4.937-.012,7.405.021a5.669,5.669,0,0,1,3.215.96,4.2,4.2,0,0,1,1.858,3.253,4.834,4.834,0,0,1-.948,3.614,5.313,5.313,0,0,1-2.384,1.586C-1705.409,1727.686-1705.519,1727.721-1705.658,1727.768Z" transform="translate(1785.803 -1703.236)" fill="#d2e0f7"/>
      <path id="Path_16745" data-name="Path 16745" d="M-1365.2,1721.151l-.678,1.654q-1.691,4.13-3.385,8.258c-.081.2-.039.218.151.217,1.122-.008,2.243,0,3.365-.008.168,0,.223.038.219.215-.012.6-.007,1.208,0,1.812,0,.12-.028.164-.156.164q-3.638-.005-7.276,0a.474.474,0,0,1-.078-.016c.251-.592.5-1.179.75-1.764q2.814-6.585,5.625-13.171a.275.275,0,0,1,.3-.2q1.213.014,2.425,0a.274.274,0,0,1,.3.205q3.128,7.362,6.263,14.721c.1.229.1.23-.149.23-.816,0-1.632,0-2.447,0a.253.253,0,0,1-.281-.192q-2.41-5.927-4.83-11.85C-1365.118,1721.341-1365.154,1721.262-1365.2,1721.151Z" transform="translate(1496.34 -1703.313)" fill="#d2e0f7"/>
      <path id="Path_16746" data-name="Path 16746" d="M-1583.529,1721.153l-4.143,10.12h.25c1.121,0,2.243,0,3.365,0,.167,0,.2.046.2.206-.01.6-.007,1.208,0,1.812,0,.128-.023.174-.165.173q-3.583-.007-7.166,0c-.225,0-.147-.1-.1-.206l3.069-7.186q1.615-3.783,3.228-7.567a.274.274,0,0,1,.3-.2q1.212.016,2.425,0a.272.272,0,0,1,.3.2q3.132,7.372,6.276,14.738c.067.157.076.22-.134.218-.83-.011-1.661-.009-2.49,0a.24.24,0,0,1-.263-.188q-2.419-5.947-4.846-11.892C-1583.453,1721.315-1583.485,1721.251-1583.529,1721.153Z" transform="translate(1681.329 -1703.311)" fill="#d2e0f7"/>
      <path id="Path_16747" data-name="Path 16747" d="M-1479.268,1718.215h.844c.685,0,1.369.005,2.054,0a.232.232,0,0,1,.262.185q2.1,5.685,4.216,11.366c.027.072.028.159.114.211q.706-1.9,1.41-3.8,1.445-3.9,2.887-7.8a.22.22,0,0,1,.25-.169q1.311.01,2.622,0c.184,0,.22.031.148.211q-2.332,5.784-4.654,11.571c-.43,1.071-.863,2.141-1.287,3.214a.268.268,0,0,1-.3.208c-.765-.011-1.529-.01-2.294,0a.255.255,0,0,1-.284-.189q-2.161-5.4-4.331-10.787-.8-2-1.6-4A.375.375,0,0,1-1479.268,1718.215Z" transform="translate(1586.361 -1703.235)" fill="#d2e0f7"/>
      <path id="Path_16748" data-name="Path 16748" d="M-1834.061,1726.93q0,3.078,0,6.156c0,.162-.029.221-.209.219q-1.213-.017-2.425,0c-.188,0-.222-.054-.222-.23q.008-6.133.009-12.267c0-.208-.045-.265-.26-.264-1.456.011-2.913,0-4.369.011-.208,0-.248-.062-.245-.253.011-.633.008-1.266,0-1.9,0-.137.03-.185.178-.185q6.118.006,12.234,0c.149,0,.179.048.178.186-.007.655-.009,1.31,0,1.964,0,.165-.059.186-.2.185-1.486,0-2.971,0-4.457-.008-.188,0-.223.054-.223.23C-1834.059,1722.826-1834.061,1724.878-1834.061,1726.93Z" transform="translate(1893.553 -1703.24)" fill="#d2e0f7"/>
    </g>
    <g id="Group_12755" data-name="Group 12755" transform="translate(-2038.401 1635.052)">
      <path id="Path_16749" data-name="Path 16749" d="M-1245.827,1733.334a7.282,7.282,0,0,1-5.442-2.2,7.305,7.305,0,0,1-2.138-5.316,7.374,7.374,0,0,1,2.138-5.317,7.3,7.3,0,0,1,5.567-2.242,8.284,8.284,0,0,1,3.482.647,7.552,7.552,0,0,1,2.366,1.636l-2.168,2.523a4.98,4.98,0,0,0-3.7-1.752,3.672,3.672,0,0,0-2.877,1.3,4.519,4.519,0,0,0-1.157,3.159,4.672,4.672,0,0,0,1.157,3.2,3.612,3.612,0,0,0,2.877,1.3,4.6,4.6,0,0,0,3.784-1.814l2.2,2.22a8.378,8.378,0,0,1-2.523,1.95A8.045,8.045,0,0,1-1245.827,1733.334Z" transform="translate(1253.406 -1718.259)" fill="#d2e0f7"/>
      <path id="Path_16750" data-name="Path 16750" d="M-1151.54,1718.4h11.613v3.054h-11.613Zm3.263,12h8.35v3.054h-11.613V1724.4h7.256v3.054h-3.993Z" transform="translate(1167.084 -1718.375)" fill="#d2e0f7"/>
      <path id="Path_16751" data-name="Path 16751" d="M-1049.488,1733.354h-3.1l-6.964-9.132v9.132h-3.586v-15.1h3.3l6.734,8.841v-8.841h3.607Z" transform="translate(1092.168 -1718.259)" fill="#d2e0f7"/>
      <path id="Path_16752" data-name="Path 16752" d="M-956.861,1721.418h-4.545v-3.159h12.729v3.159h-4.556v11.916h-3.628Z" transform="translate(1005.962 -1718.259)" fill="#d2e0f7"/>
      <path id="Path_16753" data-name="Path 16753" d="M-865.689,1718.4h11.613v3.054h-11.613Zm3.263,12h8.35v3.054h-11.613V1724.4h7.256v3.054h-3.993Z" transform="translate(924.851 -1718.375)" fill="#d2e0f7"/>
      <path id="Path_16754" data-name="Path 16754" d="M-763.981,1733.334h-4.16l-5.317-7.808h2.961q2.241,0,2.356-2.054,0-2.085-2.418-2.116h-3.1v11.978h-3.628v-15.075h7.006a6.122,6.122,0,0,1,4.524,1.585,4.652,4.652,0,0,1,1.282,3.409q0,3.69-3.179,4.7Z" transform="translate(849.935 -1718.259)" fill="#d2e0f7"/>
    </g>
  </g>
</svg>
