<svg id="Layer_1" data-name="Layer 1" xmlns="http://www.w3.org/2000/svg" viewBox="0 0 150.04 190.18">
    <defs>
        <style>.cls-1{fill:#1d6cfe;}</style>
    </defs>
    <path class="cls-1" d="M39.9,99.55c0-19.79.06-39.58,0-59.36,0-4.5,1.72-7.39,5.71-9.45,14.6-7.53,29.17-15.1,43.62-22.92,7.23-3.9,14.07-3.86,21.25,0q21.9,11.76,44,23.18c3.64,1.9,5.4,4.63,5.4,8.73q0,60,0,120.1a9.45,9.45,0,0,1-5.55,9.15q-22.66,11.81-45.27,23.7a19,19,0,0,1-18.4.06C75.5,184.89,60.47,176.88,45.37,169c-4-2.08-5.54-5.21-5.52-9.63C40,139.43,39.9,119.49,39.9,99.55Zm112.3,7.36c-14.08,7.4-27.6,14.29-40.9,21.59-7.8,4.28-15.11,4.34-22.91.05-12.25-6.73-24.75-13-37.09-19.62-2.81-1.5-4.16-1.84-4.12,2.24.17,15.67.11,31.35,0,47,0,2.39.55,3.83,2.85,5q21.53,11,42.86,22.36c4.89,2.6,9.46,2.43,14.29-.16q21.11-11.34,42.35-22.38c1.81-.94,2.72-1.93,2.7-4.13C152.16,141.86,152.2,124.81,152.2,106.91ZM47.7,38c16.2,8.53,31.63,16.7,47.12,24.77a10.79,10.79,0,0,0,10.12-.09c2.18-1.07,4.31-2.23,6.46-3.36l40.17-21.15c-3.67-2.27-6.78-4.78-10.32-6.28A212.06,212.06,0,0,1,113,17.32c-9.08-5.56-16.82-5.85-26.09-.19C74.52,24.7,61.25,30.88,47.7,38Zm0,60.75C63.49,107,78.55,114.9,93.57,122.83c2.71,1.44,2.62-.12,2.62-2,0-14.6-.07-29.2,0-43.8,0-3-.8-3.4-3.35-2C78.12,82.77,63.32,90.52,47.66,98.75Zm104.12,0c-15.7-8.29-30.68-16.21-45.69-24.09-2.77-1.45-2.59.66-2.59,2.37,0,14.58,0,29.17,0,43.76,0,2.8.8,3.06,3.12,1.83,8.84-4.72,17.75-9.31,26.61-14C139.19,105.44,145.16,102.23,151.78,98.71ZM89.64,68.38c-13.76-7.24-26.7-14-39.58-20.86-2.37-1.26-2.85-.56-2.84,1.79q.08,19,0,37.93c0,2.11.22,3.3,2.77,2C62.89,82.36,75.82,75.62,89.64,68.38ZM152,46.25,110,68.37l42,22.1Z" transform="translate(-24.98 -4.91)" />
    <path class="cls-1" d="M171.43,40.61c-2.58.41-3.94-.22-4-3.22a13.91,13.91,0,0,0-8.33-13c-2.85-1.38-3.58-2.65-1.7-5.76,2.13-3.51,3.78-1.53,5.79-.41,7.35,4.09,11.11,10.38,11.77,18.73C175.21,39.82,174.55,41.32,171.43,40.61Z" transform="translate(-24.98 -4.91)" />
    <path class="cls-1" d="M25.09,163.65c-.25-2.79-.33-4.73,2.51-4.37,1.95.25,4.88-1.29,4.79,2.78-.15,6.45,3,11,8.71,13.76,3.17,1.53,2.51,3.09,1.11,5.62-1.61,2.89-3,1.88-5,.73C29.73,177.84,25,171.87,25.09,163.65Z" transform="translate(-24.98 -4.91)" />
</svg>