<svg xmlns="http://www.w3.org/2000/svg" width="82.57" height="77.333" viewBox="0 0 82.57 77.333">
  <g>
    <path d="M203.922,212.461l-5.361,3.017c-1.07.6-2.132,1.222-3.215,1.8a.678.678,0,0,0-.417.7q.016,11.416.008,22.834c0,.994.009,1.989-.006,2.983a.552.552,0,0,0,.3.561q7.207,4.334,14.4,8.693a.5.5,0,0,0,.6.009c2.791-1.623,5.591-3.23,8.382-4.853q7.693-4.475,15.379-8.961c.373-.217.378-.214.378.235,0,3.357,0,6.714.007,10.07a.561.561,0,0,1-.316.557q-7.033,4.178-14.057,8.37-4.809,2.865-9.613,5.736a.69.69,0,0,1-.818,0q-9.325-5.463-18.661-10.907c-1.7-.994-3.4-1.994-5.111-2.976a.579.579,0,0,1-.335-.583q.011-18.483,0-36.965a.586.586,0,0,1,.342-.578q4.27-2.543,8.525-5.11a.616.616,0,0,1,.742,0c2.826,1.7,5.662,3.39,8.493,5.085A.748.748,0,0,1,203.922,212.461Z" transform="translate(-168.526 -187.013)" fill="#1c8cf3" />
    <path d="M240.82,166.753c.363-.228.71-.449,1.06-.665q3.975-2.454,7.949-4.91a.451.451,0,0,1,.554-.007c1.212.754,2.431,1.5,3.672,2.2,2.863,1.609,5.667,3.315,8.512,4.953,1.415.815,2.791,1.7,4.215,2.5,1.973,1.107,3.9,2.288,5.869,3.4a.612.612,0,0,1,.353.618q-.013,9.616,0,19.232a.611.611,0,0,1-.364.609c-1.769,1.023-3.528,2.064-5.29,3.1l-11.866,6.97q-11.656,6.848-23.308,13.7a.573.573,0,0,1-.667.007q-3.466-2.018-6.947-4.01a.581.581,0,0,1-.331-.588q.014-5.16.006-10.321c0-.495,0-.5.453-.24,1.561.89,3.11,1.8,4.686,2.664q1.1.6,2.2,1.212a.468.468,0,0,0,.531-.007q8.213-4.784,16.432-9.559c1.885-1.095,3.78-2.176,5.667-3.268q4.587-2.654,9.173-5.311a.581.581,0,0,0,.341-.579q-.02-3.9,0-7.792a.525.525,0,0,0-.287-.531q-5.017-2.945-10.024-5.909-6.213-3.672-12.422-7.348C240.938,166.848,240.9,166.811,240.82,166.753Z" transform="translate(-190.434 -161.079)" fill="#1c8cf3" />
    <path d="M212.291,184.813l-4.462,2.726c-1.462.892-2.928,1.776-4.379,2.686a.646.646,0,0,1-.778,0q-8.3-4.868-16.617-9.72-6.551-3.828-13.1-7.664a.654.654,0,0,0-.781.006c-2.538,1.541-5.087,3.064-7.632,4.592q-3.976,2.387-7.956,4.765a.615.615,0,0,0-.353.613q.016,8.537.008,17.076v.44c-.176.03-.266-.071-.368-.13q-4.516-2.616-9.032-5.231a.581.581,0,0,1-.335-.582q.014-8.559,0-17.118a.611.611,0,0,1,.355-.613q7.894-4.591,15.777-9.2,4.787-2.794,9.571-5.592a.6.6,0,0,1,.71.007c1.281.762,2.574,1.507,3.862,2.257l7.656,4.456q4.27,2.487,8.54,4.974l19.006,11.056C212.069,184.666,212.147,184.721,212.291,184.813Z" transform="translate(-146.509 -161.461)" fill="#1c8cf3" />
  </g>
</svg>